<?xml version="1.0" standalone="no"?>
<!DOCTYPE svg PUBLIC "-//W3C//DTD SVG 1.1//EN" "http://www.w3.org/Graphics/SVG/1.1/DTD/svg11.dtd" >
<svg xmlns="http://www.w3.org/2000/svg">
<metadata>
Created by FontForge 20120731 at Mon May 22 16:52:47 2017
 By admin
</metadata>
<defs>
<font id="iconfont" horiz-adv-x="1024" >
  <font-face 
    font-family="iconfont"
    font-weight="500"
    font-stretch="normal"
    units-per-em="1024"
    panose-1="2 0 6 3 0 0 0 0 0 0"
    ascent="896"
    descent="-128"
    x-height="792"
    bbox="0 -193 1089 896"
    underline-thickness="0"
    underline-position="0"
    unicode-range="U+0078-E7F2"
  />
<missing-glyph 
 />
    <glyph glyph-name=".notdef" 
 />
    <glyph glyph-name=".notdef" 
 />
    <glyph glyph-name=".null" horiz-adv-x="0" 
 />
    <glyph glyph-name="nonmarkingreturn" horiz-adv-x="341" 
 />
    <glyph glyph-name="x" unicode="x" horiz-adv-x="1001" 
d="M281 543q-27 -1 -53 -1h-83q-18 0 -36.5 -6t-32.5 -18.5t-23 -32t-9 -45.5v-76h912v41q0 16 -0.5 30t-0.5 18q0 13 -5 29t-17 29.5t-31.5 22.5t-49.5 9h-133v-97h-438v97zM955 310v-52q0 -23 0.5 -52t0.5 -58t-10.5 -47.5t-26 -30t-33 -16t-31.5 -4.5q-14 -1 -29.5 -0.5
t-29.5 0.5h-32l-45 128h-439l-44 -128h-29h-34q-20 0 -45 1q-25 0 -41 9.5t-25.5 23t-13.5 29.5t-4 30v167h911zM163 247q-12 0 -21 -8.5t-9 -21.5t9 -21.5t21 -8.5q13 0 22 8.5t9 21.5t-9 21.5t-22 8.5zM316 123q-8 -26 -14 -48q-5 -19 -10.5 -37t-7.5 -25t-3 -15t1 -14.5
t9.5 -10.5t21.5 -4h37h67h81h80h64h36q23 0 34 12t2 38q-5 13 -9.5 30.5t-9.5 34.5q-5 19 -11 39h-368zM336 498v228q0 11 2.5 23t10 21.5t20.5 15.5t34 6h188q31 0 51.5 -14.5t20.5 -52.5v-227h-327z" />
    <glyph glyph-name="pingzhengguanli" unicode="&#xe658;" 
d="M692 162h-378q-5 0 -8.5 -3.5t-3.5 -8.5t3.5 -9t8.5 -4h378q5 0 9 4t4 9t-4 8.5t-9 3.5zM692 290h-378q-5 0 -8.5 -3.5t-3.5 -9t3.5 -9t8.5 -3.5h378q5 0 9 3.5t4 9t-4 9t-9 3.5zM692 418h-378q-5 0 -8.5 -4t-3.5 -9t3.5 -8.5t8.5 -3.5h378q5 0 9 3.5t4 8.5t-4 9t-9 4z
M961 635q0 48 -34.5 81.5t-83.5 33.5h-579h-1v0h-0.5h-0.5q-48 0 -81.5 -33.5t-33.5 -81.5v-673q0 -13 9 -22l94 -91q9 -8 22 -8t22 8l95 93l100 -96q9 -9 21.5 -9t21.5 9l100 96l99 -96q9 -9 21.5 -9t21.5 9l90 87q10 9 10 22v569q38 10 62.5 41t24.5 70zM753 -89l-100 96
q-9 9 -21.5 9t-21.5 -9l-99 -96l-100 96q-9 9 -21.5 9t-21.5 -9l-96 -92l-63 61v659q0 22 15.5 37.5t37.5 15.5h0.5h0.5v0h1v0q23 0 39 -15.5t16 -37.5t-16 -37.5t-39 -15.5q-13 0 -22.5 -9t-9.5 -22t9.5 -22t22.5 -9h548v-552zM843 582h-475q14 25 14 53t-14 53h475
q23 0 39.5 -15.5t16.5 -37.5t-16.5 -37.5t-39.5 -15.5z" />
    <glyph glyph-name="iconfontzhanghu" unicode="&#xe666;" horiz-adv-x="1025" 
d="M849 -63h-671q-46 0 -78.5 32.5t-32.5 79.5v502q0 47 32.5 79.5t78.5 32.5h671q46 0 78.5 -32.5t32.5 -79.5v-502q0 -47 -32.5 -79.5t-78.5 -32.5v0zM166 -21h695q23 0 40 17t17 41v425h-809v-425q0 -24 17 -41t40 -17v0zM861 620h-695q-23 0 -40 -17t-17 -41v-58h809v58
q0 24 -17 41t-40 17zM200 279h248q9 0 15.5 -6.5t6.5 -15.5t-6.5 -15.5t-15.5 -6.5h-248q-9 0 -15.5 6.5t-6.5 15.5t6.5 15.5t15.5 6.5v0zM200 177h204q9 0 15.5 -6.5t6.5 -15.5t-6.5 -15.5t-15.5 -6.5h-204q-9 0 -15.5 6.5t-6.5 15.5t6.5 15.5t15.5 6.5v0zM535 279h74
q9 0 15.5 -6.5t6.5 -15.5t-6.5 -15.5t-15.5 -6.5h-74q-9 0 -15 6.5t-6 15.5t6 15.5t15 6.5z" />
    <glyph glyph-name="jikediancanicon13" unicode="&#xe77b;" 
d="M342.5 -137q-9.5 0 -16.5 7t-7 17t7 17l376 376l-402 402q-7 7 -7 17t7 17t17 7t17 -7l436 -436l-411 -410q-7 -7 -16.5 -7z" />
    <glyph glyph-name="jiantou" unicode="&#xe601;" 
d="M376 279q-9 -9 -22.5 -9t-22.5 9v0q-9 9 -9 22.5t9 22.5l317 317q9 9 22.5 9t22.5 -9v0q9 -9 9 -22.5t-9 -22.5zM693 4q9 -9 9 -22.5t-9 -22.5v0q-9 -9 -22.5 -9t-22.5 9l-317 317q-9 9 -9 22.5t9 22.5v0q9 9 22.5 9t22.5 -9z" />
    <glyph glyph-name="information" unicode="&#xe61b;" 
d="M509.5 -193q-95.5 0 -182.5 37.5t-149.5 101.5t-100 152.5t-37.5 185.5t37.5 185.5t100 152t149.5 101.5t182.5 38t182.5 -38t150 -101.5t100 -152t37 -185.5t-37 -185.5t-100 -152.5t-150 -101.5t-182.5 -37.5zM509.5 719q-116.5 0 -215 -58.5t-155.5 -158.5t-57 -218
t57 -218.5t155.5 -158.5t215 -58t215 58t156 158.5t57.5 218.5t-57.5 218t-156 158.5t-215 58.5zM608 10q-8 0 -28 1q-43 3 -86 3q-21 0 -43 -3q-13 -1 -17 -1q-18 0 -18 10t23 12q31 3 34.5 20t3.5 69q0 67 -3 124q-2 57 -8 65t-30 10q-20 2 -20 11.5t20 10.5l8 1l123 8
q2 -54 2 -192l-2 -82q0 -25 8.5 -33.5t27.5 -11.5q11 -1 16.5 -4t5.5 -8q0 -10 -17 -10v0zM505 425q-24 0 -40.5 16.5t-16.5 38.5q0 23 16.5 39.5t40.5 16.5q23 0 39.5 -16.5t16.5 -39.5q0 -22 -16.5 -38.5t-39.5 -16.5z" />
    <glyph glyph-name="wode" unicode="&#xe64f;" 
d="M249 324q-4 0 -6 -1q3 1 6 1v0v0zM924 55v3v-3v0zM969 551v1v0v-1v0zM924 552v-1v1v0v0zM951 -124q-10 71 -41 135q-6 13 -13 25v0q-31 51 -73 93v0q-10 10 -20 18q-70 62 -159 90q16 9 31 20q16 12 31 27q81 81 81 195.5t-81 195.5q-79 79 -191 80h-3.5h-3.5
q-112 -1 -191 -80q-81 -81 -81 -195.5t81 -195.5q15 -15 31 -27q15 -11 31 -20q-89 -28 -160 -90q-9 -9 -19 -18q-43 -42 -73 -93q-7 -12 -13 -25q-32 -64 -41 -135q-2 -12 5 -21t19 -10h3h4q18 4 21 23q19 131 114 227q55 55 125.5 86t146.5 31h1q77 0 147 -31t125 -86
q95 -96 114 -227q3 -19 21 -23v0h3.5h3.5q12 1 18.5 10t5.5 21v0zM512 258h-2q-77 1 -139 48.5t-81 120.5q0 2 -1 3q-6 24 -6 49t6 50q1 1 1 3q19 75 82 126t140 51h1q77 0 140 -51t82 -126q0 -2 1 -3q6 -25 6 -50t-6 -49q-1 -1 -1 -3q-19 -73 -81 -120.5t-139 -48.5h-3v0z
M512 258z" />
    <glyph glyph-name="iconfontliushuizijin" unicode="&#xe78c;" 
d="M835 740h-646q-26 0 -44 -18.5t-18 -43.5v-782q0 -25 18 -43t44 -18h646q26 0 44 18t18 43v782q0 25 -18 43.5t-44 18.5v0zM862 -82q0 -19 -13.5 -32.5t-32.5 -13.5h-607q-20 0 -33.5 13.5t-13.5 32.5v738q0 19 13.5 32.5t33.5 13.5h607q19 0 32.5 -13.5t13.5 -32.5v-738
zM784 196q0 -8 -5 -13t-13 -5h-508q-8 0 -13 5.5t-5 12.5v0q0 7 5.5 12t12.5 5h508q8 1 13 -4.5t5 -12.5v0v0zM784 -4q0 -7 -5 -12t-13 -5h-508q-8 0 -13 5t-5 12v0q0 8 5.5 13t12.5 5h508q8 0 13 -5t5 -13v0v0zM784 595q0 -9 -6 -15t-15 -6h-211q-8 0 -14.5 6t-6.5 15v0
q0 9 6.5 15t14.5 6h211q9 0 15 -6t6 -15v0v0zM784 395q0 -8 -6 -14.5t-15 -6.5h-211q-8 0 -14.5 6.5t-6.5 14.5v0q0 9 6.5 15t14.5 6h211q9 0 15 -6t6 -15v0v0zM449 450h-80v74h80q8 0 13.5 5.5t5.5 13t-5.5 13t-13.5 5.5h-31l36 35q5 6 5 13.5t-5 12.5t-12.5 5t-12.5 -5
l-62 -61h-32l-61 61q-6 5 -13.5 5t-12.5 -5t-5 -12.5t5 -13.5l36 -35h-32q-8 0 -13 -5.5t-5 -13t5 -13t13 -5.5h80v-74h-80q-8 0 -13 -5.5t-5 -13t5 -13t13 -5.5h80v-92q0 -8 5.5 -13.5t13 -5.5t13 5.5t5.5 13.5v92h80q8 0 13.5 5.5t5.5 13t-5.5 13t-13.5 5.5v0zM449 450z
" />
    <glyph glyph-name="xiazai" unicode="&#xe64e;" 
d="M928 -83v0h-831v0q-13 0 -22.5 -9.5t-9.5 -23t9.5 -23t22.5 -9.5v0h831v0q13 0 22.5 9.5t9.5 23t-9.5 23t-22.5 9.5v0v0zM488 -14q10 -10 24 -10v0q14 0 23 10l401 402q10 10 10 23.5t-9.5 23t-23.5 10t-23 -9.5l-345 -346v626v0q0 14 -10 23.5t-23.5 9.5t-23 -9.5
t-9.5 -23.5v0v-626l-345 346q-10 10 -23.5 10t-23.5 -10t-10 -23.5t10 -23.5l401 -402v0z" />
    <glyph glyph-name="arrowDown" unicode="&#xe662;" 
d="M528 145l438 431q5 5 5 12.5t-5 12.5t-12 5t-12 -5l-426 -419l-425 424q-5 5 -12 5t-12 -5t-5 -12t5 -12l437 -437q5 -5 12 -5t12 5z" />
    <glyph glyph-name="fuwu" unicode="&#xe634;" 
d="M275 813q-83 0 -142 -59t-59 -142t59 -142t142 -59h201v201q0 83 -59 142t-142 59v0zM414 473h-139q-57 0 -98 41t-41 98.5t41 98t98.5 40.5t98 -40.5t40.5 -98.5v-139v0zM940 612q0 83 -59 142t-142 59t-142 -59t-59 -142v-201h201q83 0 142 59t59 142v0zM600 612
q0 58 40.5 98.5t98 40.5t98.5 -40.5t41 -98t-41 -98.5t-98 -41h-139v139v0zM74 149q0 -84 59 -142.5t142 -58.5t142 58.5t59 142.5v200h-201q-83 0 -142 -58.5t-59 -141.5v0zM414 149q0 -58 -40.5 -99t-98 -41t-98.5 41t-41 98.5t41 98.5t98 41h139v-139v0zM739 349h-201
v-200q0 -84 59 -142.5t142 -58.5t142 58.5t59 142t-59 142t-142 58.5v0zM739 9q-58 0 -98.5 41t-40.5 99v139h139q57 0 98 -41t41 -98.5t-41 -98.5t-98 -41v0zM739 9z" />
    <glyph glyph-name="yijianguanli" unicode="&#xe624;" 
d="M374 553h99q7 0 14.5 5.5t7.5 16.5v99q0 21 -22 21h-99q-7 0 -14.5 -5t-7.5 -16v-99q0 -22 22 -22zM180 5h691q7 0 15 2t19 7t18 17t7 30v458q0 13 -11 25.5t-23 18.5l-11 6l-57 33v161q0 17 -10.5 25t-22.5 8h-535q-12 0 -22.5 -8.5t-10.5 -24.5v-161l-57 -33
q-5 -2 -12.5 -6.5t-20 -17.5t-12.5 -26v-458q0 -16 6 -28t13 -17t17 -8t13 -3h6zM828 550l54 -31l-54 -31v62zM283 726q0 8 3 11.5t11 3.5h461q8 0 11 -3.5t3 -11.5v-265l-244 -148l-245 148v265zM227 550v-62l-54 31zM875 61v0h-695v397l336 -201l1 -1l1.5 -0.5t2.5 -0.5
h1.5t0.5 -1h2h2.5h2.5h2l2 1q1 0 2.5 0.5t1.5 1t0.5 0.5h0.5l336 201v-397v0zM372 488v0q-8 0 -13 5t-5 12.5t5 13t13 5.5h334q7 0 12.5 -5.5t5.5 -13t-5.5 -12.5t-12.5 -5h-334v0v0v0zM558 573v0q-7 0 -12.5 5.5t-5.5 13t5.5 13t12.5 5.5h146q7 0 12.5 -5.5t5.5 -13
t-5.5 -13t-12.5 -5.5h-146v0v0v0zM558 659v0q-7 0 -12.5 5.5t-5.5 13t5.5 13t12.5 5.5h144q7 0 12.5 -5.5t5.5 -13t-5.5 -13t-12.5 -5.5h-144v0v0v0z" />
    <glyph glyph-name="4101suo" unicode="&#xe673;" 
d="M512 600q-91 0 -167.5 -44.5t-121 -121t-44.5 -167t44.5 -167t121 -121t167 -44.5t167 44.5t121 121t44.5 167t-44.5 167t-121 121t-166.5 44.5v0zM512 13q-106 0 -180.5 74.5t-74.5 179.5t74.5 180t180 75t180 -75t74.5 -180t-74.5 -179.5t-179.5 -74.5v0zM512 13z
M472 342h79v-185h-79v185v0zM472 342zM394 497v159q0 40 29 69t69 29h39q41 0 69.5 -29t28.5 -69v-157q42 -16 78 -42v199q0 73 -51.5 124.5t-124.5 51.5h-39q-73 0 -124.5 -51.5t-51.5 -124.5v-202q36 27 78 43z" />
    <glyph glyph-name="biaojiyidu" unicode="&#xe71a;" 
d="M256 74q-13 0 -23 9l-192 192l46 45l169 -169l553 553l45 -45l-576 -576q-9 -9 -22 -9zM512 138h447v-64h-447v64zM640 330h319v-64h-319v64zM768 522h191v-64h-191v64z" />
    <glyph glyph-name="jiaban" unicode="&#xe627;" 
d="M751 306h-32v-103h-103v-32h103v-103h32v103h103v32h-103v103zM530 425v290q0 11 -8.5 19t-19.5 8t-19 -8t-8 -19v-263h-210q-11 0 -19 -8t-8 -19.5t8 -19.5t19 -8h237q11 0 19.5 8t8.5 20zM699 591l37 38l-37 38l-38 -38zM484 58v0v0q-97 5 -177 55t-126 133t-46 179
q0 100 49 184.5t133.5 134t184.5 49.5q98 0 182 -48.5t134 -131.5t52 -181v0v-1q28 -15 52 -37l1 -1v2q2 15 2 30q0 86 -34 165q-32 76 -90.5 134t-133.5 91q-79 33 -165 33t-164 -33q-76 -33 -134.5 -91t-90.5 -134q-33 -79 -33 -165t33 -164q32 -76 90.5 -134.5
t134.5 -90.5q78 -33 164 -33h17h2l-1 2q-21 24 -36 53zM901.5 356q-69.5 70 -168.5 70t-169 -70t-70 -169t70 -168.5t169 -69.5t168.5 69.5t69.5 168.5t-69.5 169zM732.5 4q-75.5 0 -129 54t-53.5 129.5t53.5 129t129 53.5t129.5 -53.5t54 -129t-54 -129.5t-129.5 -54z
M338 628l-39 38l-39 -38l39 -39zM295 207l37 38l-37 38l-38 -38zM762 308h-53v-92h-96v-53h96v-104h53v104h93v53h-93v92z" />
    <glyph glyph-name="bank" unicode="&#xe609;" 
d="M140 81q-9 0 -15.5 6t-6.5 15t6.5 15.5t15.5 6.5h38v390h-76q-15 0 -25.5 10.5t-10.5 25.5q0 24 23 34l407 203q16 8 32 0l410 -205q13 -6 17.5 -20.5t-1.5 -27.5q-10 -20 -32 -20v0h-76v-390h38q9 0 15.5 -6.5t6.5 -15.5t-6.5 -15t-15.5 -6h-744v0zM250 514v0v-390h127
v390h-127v0zM449 514v0v-390h126v390h-126v0zM647 514v0v-390h127v390h-127v0zM770 586v0l-258 129l-258 -129h516v0zM102 -12v0q-15 0 -25.5 10.5t-10.5 25t10.5 25t25.5 10.5h820q14 0 25 -10.5t11 -25t-10.5 -25t-25.5 -10.5h-820v0z" />
    <glyph glyph-name="daishenhe" unicode="&#xe62c;" 
d="M259 703h512v-64h-512v64zM257 574h512v-64h-512v64zM257 446h329v-64h-329v64zM257 318h138v-64h-138v64zM899 896h-768q-27 0 -45.5 -18.5t-18.5 -45.5v-896q0 -27 18.5 -45.5t45.5 -18.5h299v64h-299v896h768v-410h64v410q0 27 -19 45.5t-45 18.5v0zM759.5 338
q-96.5 0 -165 -68t-68.5 -164.5t68.5 -165t165 -68.5t165 68.5t68.5 165t-68.5 164.5t-165 68zM759.5 -70q-72.5 0 -123.5 51.5t-51 123.5t51 123.5t123.5 51.5t123.5 -51.5t51 -123.5t-51 -123.5t-123.5 -51.5zM789 117v105q0 12 -8.5 20.5t-20.5 8.5t-21 -8.5t-9 -20.5
v-117q0 -12 9 -20l58 -59q9 -8 21 -8t20.5 8.5t8.5 20.5t-9 20z" />
    <glyph glyph-name="peie" unicode="&#xe718;" 
d="M694 -128h-364q-90 0 -166 44t-120 120t-44 166v364q0 90 44 166t120 120t166 44h364q90 0 166 -44t120 -120t44 -166v-364q0 -90 -44 -166t-120 -120t-166 -44v0zM330 844q-115 0 -196.5 -81.5t-81.5 -196.5v-364q0 -115 81.5 -196.5t196.5 -81.5h364q115 0 196.5 81.5
t81.5 196.5v364q0 115 -81.5 196.5t-196.5 81.5h-364zM225.5 270q-39.5 0 -67 -29t-27.5 -69.5t27.5 -69.5t67 -29t67.5 29t28 69.5t-28 69.5t-67.5 29zM512 564q39 0 67 28.5t28 69t-28 69.5t-67 29t-67 -29t-28 -69.5t28 -69t67 -28.5zM374 624q0 17 -11 28.5t-27 11.5
q-14 0 -30 -14q-64 -49 -100.5 -123t-36.5 -159v-8v-8.5v-3.5q0 -17 11.5 -28.5t27 -11.5t27 11.5t11.5 28.5q0 1 -0.5 9t-0.5 11q0 66 29 124.5t80 96.5q20 12 20 35zM779 368v0q0 -17 11 -28.5t27 -11.5t27 11.5t11 28.5v7q-1 86 -41 160.5t-107 122.5v0q-11 10 -25 10
q-16 0 -27.5 -11.5t-11.5 -28.5v0q0 -18 14 -30v0v0q3 -3 7 -5q53 -37 84 -96.5t31 -128.5v0zM626 116q-9 0 -18 -5q-46 -18 -96 -18v0v0q-52 0 -99 20q-2 0 -3 1l-2 1v0q-6 1 -11 1q-16 0 -27 -11.5t-11 -27.5q0 -13 7.5 -23.5t19.5 -14.5q25 -10 62 -17t64 -7v0v0
q62 0 119 22q14 2 23.5 13t9.5 26q0 16 -11 28t-27 12zM798.5 270q-39.5 0 -67.5 -29t-28 -69.5t28 -69.5t67.5 -29t67 29t27.5 69.5t-27.5 69.5t-67 29z" />
    <glyph glyph-name="touxiang" unicode="&#xe600;" 
d="M1 384v0q0 -104 40.5 -199t109 -163.5t163 -109t198.5 -40.5t199 40.5t163.5 109t109 163.5t40.5 199v0v0q0 104 -40.5 199t-109 163.5t-163.5 109t-199 40.5t-198.5 -40.5t-163 -109t-109 -163.5t-40.5 -199v0zM750 49q-37 14 -84 23v0q-26 5 -55 9q-44 -12 -98.5 -12
t-99.5 12q-30 -4 -59 -10q1 0 5 -1q1 -1 2 -1q-1 0 -2 1q-4 1 -5 1q-44 -9 -79 -22q0 1 -15 -7.5t-36.5 -24t-35.5 -29.5q141 -116 324 -116t324 116q-14 14 -35.5 29.5t-36 24t-14.5 7.5v0zM737 452q-10 3 -21 -3q1 64 -18 111h-372q-19 -49 -18 -116q-11 7 -21 3
q-13 -5 -17 -27t4.5 -47.5t24.5 -39.5t30 -9q25 -80 70 -135q7 -10 15 -18v-90h-0.5h-0.5q45 -12 99.5 -12t98.5 12v0h-1v90q8 8 16 18q45 55 69 135l5 0.5t12 3.5t14 8t14 16t9 26q9 25 5.5 47t-17.5 27zM698 558q-2 -47 18 -115q2 5 4.5 14.5t8.5 36t9 51t0.5 54t-12 51
t-32 36t-56.5 14.5l-63 17q-181 36 -248 -50q-57 -73 -19 -230q3 -11 8 -20q19 28 57 46t82.5 26.5t89.5 16t87 20t66 32.5zM321 -38h93v-16h-93v16zM512 69q2 -4 7 -10.5t24 -19t43 -16.5q3 4 7.5 10.5t11.5 22t6 25.5zM512 69q-3 -4 -8 -10.5t-24 -19t-42 -16.5
q-3 4 -7.5 10.5t-11.5 22t-6 25.5zM502 42v0q0 -9 9.5 -9t9.5 9v0v0q0 10 -9.5 10t-9.5 -10v0zM502 7v0q0 -10 9.5 -10t9.5 10v0q0 9 -9.5 9t-9.5 -9zM502 -30v0q0 -9 9.5 -9t9.5 9v0q0 9 -9.5 9t-9.5 -9z" />
    <glyph glyph-name="yewu" unicode="&#xe607;" horiz-adv-x="1102" 
d="M546.5 882q39.5 0 74 -17t55 -41t35.5 -48t21 -41l6 -17h290q2 -1 7 -1.5t7 -1.5q25 -11 39 -34q5 -11 5 -55v-516q0 -12 1.5 -50t1.5 -61.5t-4 -50.5t-12 -39q-12 -16 -32.5 -19.5t-58.5 -3.5h-913q-17 4 -28.5 14.5t-17 21t-7.5 30t-2 33t0.5 40.5t0.5 41v547
q0 5 -0.5 19t0 23.5t2.5 16.5q6 17 17 27t30.5 14t34 4.5t44.5 0.5h10h211q1 7 5 18t18.5 39.5t33.5 50t52.5 39t73 17.5zM415 718h272q-2 5 -5.5 12.5t-17 27.5t-28.5 35t-39 27t-50.5 12t-49.5 -11.5t-37.5 -28.5t-25 -33.5t-14.5 -28.5l-5 -12v0zM65 426h322q0 37 18 52
q5 4 12 7.5t16.5 5t16.5 3t19 1.5t18.5 0.5t21.5 0t21 -0.5q13 0 36.5 1t38 1t34.5 -1t31.5 -5.5t23 -12t17 -20.5t4.5 -32h322v178q0 5 0.5 15t0 15.5t-1.5 12.5t-4 11.5t-8 6.5q-5 4 -15.5 4.5t-28 -0.5t-20.5 -1h-800q-12 1 -24 1q-31 0 -61 -4l-9 -11v-228h-1zM446 444
q-6 -7 -7 -9q-3 -4 -3.5 -16.5t0.5 -32.5l1 -20q5 -4 10.5 -6t14 -2.5t13 -1t17 0t16.5 0.5q31 -2 61 -2q45 0 89 3q7 11 8 35t-1 42l-1 4q-4 2 -8 3q-4 3 -15 3.5t-25.5 -0.5t-17.5 -1h-152zM65 376v-287q0 -13 -1 -45t-0.5 -56t3.5 -43q5 -3 11 -5t11 -3t14 -1t14 -0.5
t16 0t15 0.5h799q12 -1 24 -1q30 0 59 4q6 10 8 30.5t0.5 57.5t-1.5 39v310h-322q1 -19 -4.5 -32.5t-17 -21t-24 -12t-32.5 -5t-35 -0.5t-38.5 1t-37.5 1q-6 0 -26 -0.5t-28.5 0t-23 1.5t-24 4.5t-16.5 8.5q-22 16 -21 55h-322z" />
    <glyph glyph-name="shenlingshebei" unicode="&#xe602;" 
d="M375 670q-11 0 -18 7t-7 18.5t7 18.5t18 7h408q11 0 18.5 -7t7.5 -18.5t-7.5 -18.5t-18.5 -7h-408zM375 544q-11 0 -18 7t-7 18.5t7 18.5t18 7h408q11 0 18.5 -7t7.5 -18.5t-7.5 -18.5t-18.5 -7h-408zM375 433q-11 0 -18 7t-7 18.5t7 18.5t18 7h280q11 0 18.5 -7
t7.5 -18.5t-7.5 -18.5t-18.5 -7h-280zM154 -96v6q0 32 -3 54q-1 10 -25 109l-4 19q-18 63 -9 109q8 41 47 100q10 14 68 115v452h606q39 0 66.5 -27.5t27.5 -66.5v-746h-393q-19 -15 -29 -56q-3 -8 -4.5 -29t-2.5 -24v-6h-40v6q0 32 6 58q4 19 15 46l2 7h-89v4q-9 39 -22 83
q-7 34 -4 56q2 10 6.5 20.5t10.5 21.5l6 11q26 39 39 56q19 24 19 34q5 20 -9 30q-8 4 -10 4q-5 0 -10 -1.5t-7 -3.5l-2 -2l-60 -57l-126 -124v171l-6 -11q-50 -77 -60 -100q-15 -30 -9 -85q3 -22 20 -84q17 -63 21 -89q4 -35 0 -58v-6q-9 4 -36 4zM433 399q26 0 41 -15
l2 -2q21 -21 23 -51q0 -36 -23 -64q-5 -6 -12.5 -16t-15 -20.5t-9.5 -12.5q-16 -22 -23 -47q-2 -6 -2 -14t1 -13l1 -5l15 -62l452 -2v695q0 23 -16.5 39.5t-38.5 16.5h-555v-555l13 13q32 30 96 94q23 19 45 19q1 0 3 1t3 1zM175 -115q-10 0 -15.5 6t-5.5 15v19q0 10 5.5 16
t15.5 6t15.5 -6t5.5 -16v-19q0 -9 -6.5 -15t-14.5 -6zM478 -111q-9 0 -15 6.5t-6 14.5v13q0 8 6.5 14.5t14.5 4.5q8 0 13.5 -6.5t5.5 -14.5v-13q2 -7 -4.5 -13t-14.5 -6zM672 284q-8 13 -47 57q-24 -40 -55 -66l-24 24q22 17 41.5 44t29.5 54l29 -9q-4 -13 -8 -19
q43 -43 55 -60zM683 252q-4 -11 -10.5 -23.5t-11.5 -21.5t-13.5 -23.5t-11.5 -19.5q4 -4 12 -13t11 -12l-25 -22q-29 38 -60 66l23 18q4 -3 9 -8t8 -7q22 38 26 47h-68v29h83l6 3zM621 316q23 -24 32 -34l-24 -17q-19 25 -30 36zM774 186q42 -32 54 -49l-24 -22
q-4 6 -12.5 14t-19.5 18.5t-17 16.5q-15 -33 -66 -49q-4 13 -17 26q47 13 57.5 41.5t10.5 107.5h30q0 -84 -13 -117zM734 324q1 5 4 13.5t4 12.5h-53v32h137v-32h-52q-2 -4 -5 -12.5t-5 -13.5h55v-138h-32v113h-60v-116h-32v141h39z" />
    <glyph glyph-name="tiaobodan" unicode="&#xe622;" horiz-adv-x="1035" 
d="M1033 410h-53q-6 26 -26 46l-364 359q-12 13 -33.5 21.5t-39 8.5t-39 -8.5t-33.5 -21.5l-364 -359q-19 -20 -26 -46h-53q1 3 4 14q-3 5 -3 11q0 17 17 24q10 18 25 33l364 359q45 45 109 45t109 -45l363 -359q15 -14 25 -33q17 -7 17 -24q0 -5 -3 -11q3 -11 4 -14z
M292 587h451q56 0 95.5 -39.5t39.5 -94.5v-442q0 -56 -39.5 -95.5t-95.5 -39.5h-20v0q-10 0 -17.5 7.5t-7.5 18t7.5 18t17.5 7.5h13q38 0 64 26t26 64v430q0 37 -26 63.5t-64 26.5h-437v0q-37 0 -63.5 -26.5t-26.5 -63.5v-430v0q0 -38 26.5 -64t63.5 -26v0h13
q11 0 18.5 -7.5t7.5 -18t-7.5 -18t-18.5 -7.5h-20v0q-55 0 -94.5 39.5t-39.5 95.5v442q0 55 39.5 94.5t94.5 39.5zM261.5 173.5q7.5 7.5 18.5 7.5t18 -8l58 -57v246q0 9 6.5 15.5t16.5 6.5h6v0q9 0 16 -6.5t7 -15.5v-260l72 71q8 8 18.5 8t18 -7.5t7.5 -18t-8 -18.5
l-109 -107q-7 -8 -18 -8t-18 8l-109 107q-8 8 -8 18.5t7.5 18zM525 273l104 104q7 7 17.5 7t17.5 -7l104 -104q7 -7 7 -17t-7 -17t-17 -7t-18 7l-54 54v-242q0 -9 -6.5 -16t-15.5 -7h-7q-9 0 -15.5 7t-6.5 16v255l-68 -67q-7 -7 -17.5 -7t-17.5 7t-7 17t7 17z" />
    <glyph glyph-name="rizhi" unicode="&#xe7f2;" 
d="M952 -1q0 -11 -7.5 -18.5t-18.5 -7.5h-818q-11 0 -18.5 7.5t-7.5 18.5t7.5 18.5t18.5 7.5h818q11 0 18.5 -7.5t7.5 -18.5zM170 105l57 203l481 481q16 17 36 17t37 -17l110 -110q17 -16 17 -36t-17 -37l-481 -481l-203 -56q-21 -5 -31 5t-6 31zM653 661l110 -110l73 73
q14 15 14 19t-14 18l-73 73q-13 14 -18.5 14t-18.5 -14zM304 312l110 -110l312 312l-110 110zM226 124l151 42l-110 110z" />
  </font>
</defs>
</svg>
